<?xml version="1.0" standalone="no"?>
<!DOCTYPE svg PUBLIC "-//W3C//DTD SVG 20010904//EN"
 "http://www.w3.org/TR/2001/REC-SVG-20010904/DTD/svg10.dtd">
<svg version="1.0" xmlns="http://www.w3.org/2000/svg"
 width="1024.000000pt" height="1024.000000pt" viewBox="0 0 1024.000000 1024.000000"
 preserveAspectRatio="xMidYMid meet">
<metadata>
Created by potrace 1.14, written by Peter Selinger 2001-2017
</metadata>
<g transform="translate(0.000000,1024.000000) scale(0.100000,-0.100000)"
fill="#000000" stroke="none">
<path d="M4629 8156 c-41 -15 -84 -43 -116 -78 -23 -24 -135 -229 -129 -235 1
-2 54 10 117 26 413 106 831 107 1237 5 57 -15 105 -25 107 -23 6 6 -115 202
-143 232 -15 16 -47 41 -72 55 l-45 27 -460 2 c-359 2 -468 0 -496 -11z"/>
<path d="M2552 7940 c-39 -24 -72 -75 -72 -112 0 -28 0 -28 -71 -28 -250 0
-485 -171 -583 -424 l-31 -81 0 -1860 0 -1860 22 -70 c31 -96 86 -186 160
-261 76 -75 152 -123 258 -161 l80 -28 698 -3 c561 -2 697 0 691 10 -4 7 -170
240 -369 518 -198 278 -381 541 -407 585 -321 548 -413 1227 -253 1850 118
457 346 856 680 1190 244 245 533 440 824 556 l84 34 -365 3 -365 2 -7 39 c-3
21 -15 50 -27 65 -44 56 -42 56 -496 56 -399 0 -419 -1 -451 -20z"/>
<path d="M6014 7792 c3 -5 27 -17 53 -27 88 -33 317 -153 423 -223 153 -100
288 -212 432 -360 401 -411 646 -927 713 -1502 17 -146 19 -409 4 -548 -34
-319 -156 -687 -321 -975 -31 -54 -217 -322 -412 -596 -196 -274 -356 -502
-356 -505 0 -4 309 -5 688 -4 l687 3 80 28 c106 38 182 86 258 161 71 72 128
162 160 256 l22 65 3 1838 c3 2044 7 1899 -66 2047 -27 56 -57 96 -117 155
-86 86 -153 127 -270 166 l-70 24 -958 3 c-558 2 -956 -1 -953 -6z m1947 -565
c52 -34 69 -78 69 -175 0 -103 -21 -152 -80 -182 -36 -18 -58 -20 -262 -20
-250 0 -273 5 -315 69 -20 30 -23 47 -23 135 0 111 11 141 66 177 26 17 51 19
270 19 234 0 242 -1 275 -23z"/>
<path d="M4825 7775 c-526 -75 -983 -303 -1360 -680 -376 -375 -609 -842 -692
-1385 -21 -140 -24 -453 -5 -585 45 -316 139 -603 276 -844 65 -115 1891
-2683 1957 -2752 82 -87 172 -89 250 -6 22 23 458 629 969 1347 912 1280 931
1308 1018 1480 178 353 256 670 256 1040 0 383 -79 720 -248 1065 -297 604
-816 1047 -1453 1240 -221 67 -358 87 -628 91 -170 2 -269 -1 -340 -11z m570
-1354 c93 -25 238 -92 324 -150 306 -208 476 -578 441 -955 -41 -431 -349
-791 -777 -908 -117 -32 -382 -32 -507 0 -99 25 -244 90 -333 149 -132 87
-267 241 -343 393 -306 608 55 1346 726 1485 105 22 365 14 469 -14z"/>
</g>
</svg>
