<?xml version="1.0" standalone="no"?>
<!DOCTYPE svg PUBLIC "-//W3C//DTD SVG 20010904//EN"
 "http://www.w3.org/TR/2001/REC-SVG-20010904/DTD/svg10.dtd">
<svg version="1.0" xmlns="http://www.w3.org/2000/svg"
 width="1024.000000pt" height="1024.000000pt" viewBox="0 0 1024.000000 1024.000000"
 preserveAspectRatio="xMidYMid meet">
<metadata>
Created by potrace 1.14, written by Peter Selinger 2001-2017
</metadata>
<g transform="translate(0.000000,1024.000000) scale(0.100000,-0.100000)"
fill="#000000" stroke="none">
<path d="M0 5120 l0 -5120 5120 0 5120 0 0 5120 0 5120 -5120 0 -5120 0 0
-5120z m5450 2654 c249 -36 476 -106 706 -219 459 -224 825 -582 1063 -1035
360 -689 373 -1476 34 -2155 -94 -188 0 -52 -1328 -1910 -240 -335 -482 -675
-537 -755 -122 -175 -149 -205 -204 -226 -87 -33 -160 2 -235 112 -46 69 -408
576 -1433 2007 -223 313 -434 615 -467 672 -289 496 -374 1144 -224 1720 241
928 991 1623 1918 1780 221 37 490 40 707 9z m2496 -533 c66 -30 84 -70 84
-187 0 -112 -15 -149 -72 -184 -31 -18 -51 -20 -273 -20 -239 0 -241 0 -277
25 -52 35 -71 91 -67 198 4 72 8 88 31 119 49 64 67 68 313 68 193 0 225 -3
261 -19z"/>
<path d="M4970 6443 c-146 -24 -292 -82 -420 -167 -211 -141 -360 -352 -427
-604 -23 -85 -26 -117 -26 -257 0 -140 3 -172 26 -256 180 -677 937 -986 1541
-631 99 58 246 197 315 297 173 250 228 561 151 860 -11 44 -45 130 -74 190
-146 296 -412 498 -739 560 -73 14 -283 19 -347 8z"/>
</g>
</svg>
