<svg width="199" height="48" viewBox="0 0 199 48" fill="none" xmlns="http://www.w3.org/2000/svg">
<path d="M22.58 13.6637C24.34 15.5837 25.22 18.2337 25.22 21.5937V36.4137H17.49V22.6437C17.5905 21.189 17.1166 19.7528 16.17 18.6437C15.2119 17.7379 13.9435 17.2332 12.625 17.2332C11.3065 17.2332 10.0381 17.7379 9.08 18.6437C8.13338 19.7528 7.65945 21.189 7.76 22.6437V36.4137H0V2.77368H7.77V14.4637C8.59901 13.3056 9.71108 12.3795 11 11.7737C12.4335 11.094 14.0037 10.7519 15.59 10.7737C16.895 10.7193 18.1963 10.9497 19.4033 11.4487C20.6104 11.9478 21.6944 12.7036 22.58 13.6637Z" fill="white"/>
<path d="M31.19 7.21376C30.782 6.82779 30.4571 6.36268 30.235 5.84686C30.013 5.33104 29.8984 4.77535 29.8984 4.21376C29.8984 3.65217 30.013 3.09648 30.235 2.58066C30.4571 2.06484 30.782 1.59973 31.19 1.21376C32.1021 0.389008 33.3012 -0.0453894 34.53 0.00375896C35.7464 -0.0434357 36.9324 0.391403 37.83 1.21376C38.2405 1.5982 38.5678 2.06281 38.7915 2.57884C39.0152 3.09486 39.1307 3.65132 39.1307 4.21376C39.1307 4.7762 39.0152 5.33265 38.7915 5.84868C38.5678 6.36471 38.2405 6.82932 37.83 7.21376C36.9291 8.02968 35.7445 8.46042 34.53 8.41376C33.3032 8.46138 32.1059 8.03119 31.19 7.21376ZM38.4 11.0538V36.4138H30.63V11.0538H38.4Z" fill="white"/>
<path d="M48.44 35.6437C46.8316 34.9718 45.4232 33.8974 44.35 32.5237C43.3632 31.2463 42.7784 29.7043 42.67 28.0937H50.35C50.386 28.5242 50.5145 28.9419 50.7268 29.3181C50.9391 29.6944 51.2302 30.0203 51.58 30.2737C52.3595 30.8332 53.301 31.1213 54.26 31.0937C55.051 31.1417 55.8373 30.9425 56.51 30.5237C56.757 30.3641 56.9597 30.1448 57.0996 29.8862C57.2394 29.6275 57.3118 29.3378 57.31 29.0437C57.3111 28.6901 57.2018 28.345 56.9975 28.0565C56.7931 27.7679 56.5039 27.5502 56.17 27.4337C54.9792 26.9415 53.7479 26.5533 52.49 26.2737C50.9454 25.928 49.4255 25.4804 47.94 24.9337C46.7275 24.4623 45.6516 23.6959 44.81 22.7037C43.8805 21.5422 43.4106 20.0793 43.49 18.5937C43.4737 17.1694 43.8924 15.7739 44.69 14.5937C45.5809 13.3303 46.8119 12.3455 48.24 11.7537C50.0018 11.0147 51.9001 10.6568 53.81 10.7037C56.5219 10.5496 59.1966 11.3926 61.33 13.0737C62.2428 13.86 62.9917 14.8185 63.5339 15.8943C64.0761 16.9701 64.401 18.1423 64.49 19.3437H57.31C57.2632 18.9391 57.1365 18.5478 56.9374 18.1925C56.7383 17.8372 56.4707 17.5249 56.15 17.2737C55.4076 16.7289 54.4998 16.4569 53.58 16.5037C52.8462 16.4551 52.1155 16.6369 51.49 17.0237C51.2587 17.1822 51.0707 17.3961 50.9432 17.6459C50.8157 17.8957 50.7527 18.1734 50.76 18.4537C50.763 18.8128 50.8757 19.1623 51.0831 19.4555C51.2904 19.7486 51.5825 19.9713 51.92 20.0937C53.088 20.575 54.3005 20.94 55.54 21.1837C57.0976 21.567 58.6304 22.0445 60.13 22.6137C61.3373 23.1038 62.4053 23.8834 63.24 24.8837C64.1847 26.0796 64.677 27.5705 64.63 29.0937C64.6539 30.5267 64.2156 31.9293 63.38 33.0937C62.4636 34.3276 61.22 35.2803 59.79 35.8437C58.0632 36.5421 56.2124 36.8823 54.35 36.8437C52.3179 36.8606 50.3047 36.4518 48.44 35.6437V35.6437Z" fill="white"/>
<path d="M83.5399 29.8238V36.4138H79.5399C77.1803 36.5452 74.8542 35.809 72.9999 34.3438C71.4333 32.9638 70.6466 30.7138 70.6399 27.5938V17.5038H67.5499V11.0538H70.6399V4.86377H78.4099V11.0538H83.4999V17.5038H78.3999V27.6838C78.3705 27.9805 78.4043 28.28 78.4991 28.5627C78.5939 28.8454 78.7476 29.1048 78.9499 29.3238C79.4724 29.7049 80.1159 29.8827 80.7599 29.8238H83.5399Z" fill="white"/>
<path d="M128 11.9837C129.379 11.1755 130.952 10.7573 132.55 10.7737V19.0037H130.4C128.829 18.8847 127.267 19.3355 126 20.2737C125 21.1037 124.54 22.5737 124.54 24.6637V36.4137H116.77V11.0537H124.54V15.2737C125.42 13.9209 126.605 12.7939 128 11.9837V11.9837Z" fill="white"/>
<path d="M136.83 7.21376C136.422 6.82779 136.097 6.36268 135.875 5.84686C135.653 5.33104 135.538 4.77535 135.538 4.21376C135.538 3.65217 135.653 3.09648 135.875 2.58066C136.097 2.06484 136.422 1.59973 136.83 1.21376C137.742 0.389008 138.941 -0.0453894 140.17 0.00375896C141.386 -0.0434357 142.572 0.391403 143.47 1.21376C143.881 1.5982 144.208 2.06281 144.432 2.57884C144.655 3.09486 144.771 3.65132 144.771 4.21376C144.771 4.7762 144.655 5.33265 144.432 5.84868C144.208 6.36471 143.881 6.82932 143.47 7.21376C142.569 8.02968 141.385 8.46042 140.17 8.41376C138.943 8.46138 137.746 8.03119 136.83 7.21376V7.21376ZM144 11.0538V36.4138H136.23V11.0538H144Z" fill="white"/>
<path d="M173.45 25.5938H155.86C155.887 26.9501 156.43 28.2451 157.38 29.2138C158.274 30.047 159.459 30.4959 160.68 30.4638C161.519 30.5143 162.353 30.3052 163.068 29.8651C163.784 29.4249 164.347 28.7751 164.68 28.0038H173C172.585 29.6571 171.802 31.1954 170.71 32.5038C169.583 33.8561 168.16 34.9306 166.55 35.6438C164.802 36.4137 162.91 36.7991 161 36.7738C158.688 36.8166 156.402 36.2694 154.36 35.1838C152.439 34.1427 150.861 32.5653 149.82 30.6438C148.692 28.5186 148.127 26.1395 148.18 23.7338C148.126 21.3316 148.679 18.9546 149.79 16.8238C150.811 14.9049 152.367 13.3241 154.27 12.2738C156.321 11.2415 158.584 10.7039 160.88 10.7039C163.176 10.7039 165.44 11.2415 167.49 12.2738C169.384 13.2641 170.951 14.782 172 16.6438C173.115 18.6904 173.674 20.9938 173.62 23.3238C173.607 24.0831 173.55 24.841 173.45 25.5938V25.5938ZM165.63 21.2738C165.656 20.6758 165.547 20.0796 165.312 19.5292C165.076 18.9789 164.72 18.4883 164.27 18.0938C163.32 17.2897 162.104 16.869 160.86 16.9138C159.658 16.8776 158.484 17.2832 157.56 18.0538C156.624 18.8819 156.031 20.0307 155.9 21.2738H165.63Z" fill="white"/>
<path d="M182.08 35.6438C180.475 34.9704 179.07 33.8961 178 32.5238C177.013 31.2464 176.428 29.7044 176.32 28.0938H184C184.035 28.5235 184.162 28.9407 184.372 29.3169C184.583 29.6931 184.872 30.0195 185.22 30.2738C185.999 30.8333 186.941 31.1214 187.9 31.0938C188.691 31.1418 189.477 30.9426 190.15 30.5238C190.397 30.3642 190.6 30.145 190.739 29.8863C190.879 29.6276 190.952 29.3379 190.95 29.0438C190.951 28.6903 190.842 28.3452 190.637 28.0566C190.433 27.768 190.144 27.5503 189.81 27.4338C188.619 26.9416 187.388 26.5535 186.13 26.2738C184.585 25.9282 183.065 25.4805 181.58 24.9338C180.367 24.4625 179.292 23.696 178.45 22.7038C177.52 21.5423 177.051 20.0794 177.13 18.5938C177.114 17.1695 177.532 15.774 178.33 14.5938C179.221 13.3304 180.452 12.3456 181.88 11.7538C183.642 11.0148 185.54 10.657 187.45 10.7038C190.169 10.5367 192.856 11.3728 195 13.0538C195.913 13.8401 196.662 14.7986 197.204 15.8744C197.746 16.9503 198.071 18.1224 198.16 19.3238H191C190.944 18.919 190.809 18.5292 190.601 18.1772C190.393 17.8253 190.118 17.5182 189.79 17.2738C189.047 16.729 188.14 16.457 187.22 16.5038C186.486 16.4552 185.755 16.637 185.13 17.0238C184.899 17.1823 184.711 17.3962 184.583 17.646C184.456 17.8958 184.393 18.1735 184.4 18.4538C184.403 18.8129 184.516 19.1625 184.723 19.4556C184.93 19.7487 185.222 19.9715 185.56 20.0938C186.728 20.5751 187.94 20.9402 189.18 21.1838C190.738 21.5657 192.271 22.0432 193.77 22.6138C194.977 23.1039 196.045 23.8835 196.88 24.8838C197.825 26.0797 198.317 27.5706 198.27 29.0938C198.294 30.5268 197.856 31.9294 197.02 33.0938C196.104 34.3278 194.86 35.2804 193.43 35.8438C191.703 36.543 189.852 36.8833 187.99 36.8438C185.958 36.8607 183.945 36.4519 182.08 35.6438V35.6438Z" fill="white"/>
<path d="M100.19 9.37378C97.6538 9.37758 95.165 10.0626 92.9839 11.3572C90.8028 12.6518 89.0094 14.5085 87.7913 16.7332C86.5732 18.958 85.975 21.469 86.0592 24.004C86.1434 26.539 86.907 29.0048 88.2702 31.1438L99.1002 46.2738C99.1885 46.4986 99.3368 46.6949 99.529 46.8413C99.7212 46.9876 99.9499 47.0784 100.19 47.1038V47.1038C100.61 47.1038 100.98 46.8438 101.29 46.2738L112.07 31.1538C113.518 28.916 114.292 26.3091 114.3 23.6438C114.313 19.8827 112.836 16.2696 110.192 13.5951C107.547 10.9207 103.951 9.40285 100.19 9.37378V9.37378ZM100.19 29.7038C98.9655 29.7038 97.7683 29.3405 96.7501 28.6599C95.732 27.9793 94.9386 27.0119 94.4704 25.8803C94.0022 24.7486 93.8802 23.5035 94.1198 22.3025C94.3595 21.1015 94.95 19.9985 95.8167 19.1332C96.6834 18.268 97.7873 17.6792 98.9887 17.4415C100.19 17.2038 101.435 17.3278 102.566 17.7978C103.697 18.2679 104.663 19.0628 105.342 20.0821C106.021 21.1013 106.382 22.2991 106.38 23.5238C106.383 24.3369 106.224 25.1426 105.914 25.8942C105.604 26.6459 105.148 27.3286 104.572 27.9032C103.997 28.4777 103.313 28.9326 102.561 29.2416C101.809 29.5507 101.003 29.7077 100.19 29.7038V29.7038Z" fill="#FC6E47"/>
</svg>
