<svg id="Layer_1" data-name="Layer 1" xmlns="http://www.w3.org/2000/svg" viewBox="0 0 165.91 37.36"><defs><style>.cls-1{fill:#fe0000;}</style></defs><path d="M29,98V86H18.59V98H13V71.25h5.59v10H29v-10h5.63V98Z" transform="translate(-4.68 -68.43)"/><rect class="cls-1" y="17.3" width="3" height="20.03"/><rect class="cls-1" x="0.04" y="34.36" width="20.03" height="3"/><rect class="cls-1" x="162.91" y="0.01" width="3" height="20.03"/><rect class="cls-1" x="145.82" width="20.03" height="3"/><path d="M36.85,75.79V70.93h5.23v4.86Zm0,22.16V78.16h5.23V98Z" transform="translate(-4.68 -68.43)"/><path d="M56.35,84.16c-.28-1.93-1.33-2.62-3.7-2.62-2,0-3.1.48-3.1,1.65s1.09,1.65,3.22,2.25,4.38,1.09,5.91,1.69a4.65,4.65,0,0,1,3.26,4.79c0,4.1-3,6.55-8.65,6.55-6.07,0-9.45-2.85-9.53-6.87h5.39c0,1.85,1.57,2.93,4.1,2.93,1.85,0,3.5-.56,3.5-2s-1.49-1.85-3.17-2.25c-3.34-.81-5.19-1.37-6.6-2.25a4.92,4.92,0,0,1-2.49-4.47c0-3.34,2.29-5.87,8.32-5.87,5.71,0,8.29,2.25,8.57,6.52Z" transform="translate(-4.68 -68.43)"/><path d="M74.41,84.92h4.86v5.63c0,4.18-2.41,7.92-8,7.92-5.79,0-8.08-3.7-8.08-8V72.82h5.14v5.34H79.27v3.7H68.33V90c0,2.49.89,3.94,3,3.94s3.06-1.41,3.06-3.86Z" transform="translate(-4.68 -68.43)"/><path d="M103.08,98V78.16H108v2.38c1.72-2.66,3.74-2.9,5.87-2.9h.68V83a8.78,8.78,0,0,0-1.45-.12c-3.21,0-4.78,1.61-4.78,4.78V98Z" transform="translate(-4.68 -68.43)"/><path d="M116.11,75.79V70.93h5.23v4.86Zm0,22.16V78.16h5.23V98Z" transform="translate(-4.68 -68.43)"/><path d="M128.49,89.42c.17,3,1.85,4.91,4.43,4.91a3.46,3.46,0,0,0,3.54-2.21h5.39a8.59,8.59,0,0,1-8.69,6.35c-6.6,0-9.89-3.62-9.89-10.78,0-6.11,3.5-10,9.57-10s9.29,3.94,9.29,11.78Zm8.25-3.29c-.08-2.94-2-4.35-4.06-4.35s-3.82,1.61-4,4.35Z" transform="translate(-4.68 -68.43)"/><path d="M155.84,84.16c-.28-1.93-1.33-2.62-3.7-2.62-2,0-3.1.48-3.1,1.65s1.09,1.65,3.22,2.25,4.38,1.09,5.91,1.69a4.65,4.65,0,0,1,3.26,4.79c0,4.1-3,6.55-8.65,6.55-6.07,0-9.45-2.85-9.53-6.87h5.39c0,1.85,1.57,2.93,4.1,2.93,1.85,0,3.5-.56,3.5-2s-1.49-1.85-3.17-2.25c-3.34-.81-5.19-1.37-6.6-2.25A4.92,4.92,0,0,1,144,83.51c0-3.34,2.29-5.87,8.32-5.87,5.71,0,8.29,2.25,8.57,6.52Z" transform="translate(-4.68 -68.43)"/><path class="cls-1" d="M91.87,77.45,86.64,86.7l-3.32-5.76A10.54,10.54,0,0,1,91.87,77.45Z" transform="translate(-4.68 -68.43)"/><path class="cls-1" d="M83,81.46l5.24,9.43h-7S79.65,85.65,83,81.46Z" transform="translate(-4.68 -68.43)"/><path class="cls-1" d="M81.57,91.59H92.72l-3.64,6.28A10.88,10.88,0,0,1,81.57,91.59Z" transform="translate(-4.68 -68.43)"/><path class="cls-1" d="M95.54,88.1,99,94.21a10.22,10.22,0,0,1-9.25,3.66Z" transform="translate(-4.68 -68.43)"/><path class="cls-1" d="M93.79,83.73h6.81a11.26,11.26,0,0,1,.66,3.06,12,12,0,0,1-1.7,6.89Z" transform="translate(-4.68 -68.43)"/><path class="cls-1" d="M92.57,77.62l-3.14,5.59h10.65S98.86,78.67,92.57,77.62Z" transform="translate(-4.68 -68.43)"/></svg>