<svg id="Layer_1" data-name="Layer 1" xmlns="http://www.w3.org/2000/svg" viewBox="0 0 168.97 169.58"><defs><style>.cls-1{fill:#fe0000;}</style></defs><path class="cls-1" d="M95.61,6.82,52.3,83.33,24.87,35.69S48,5.37,95.61,6.82Z" transform="translate(-4.47 -6.77)"/><path class="cls-1" d="M22,40l43.31,78H7.54S-5.45,74.67,22,40Z" transform="translate(-4.47 -6.77)"/><path class="cls-1" d="M10.43,123.75h92.13l-30,52S27.75,167.06,10.43,123.75Z" transform="translate(-4.47 -6.77)"/><path class="cls-1" d="M125.92,94.88l28.88,50.53s-26,36.09-76.52,30.31Z" transform="translate(-4.47 -6.77)"/><path class="cls-1" d="M111.49,58.79h56.3a93,93,0,0,1,5.41,25.26c1.91,26.88-8.52,47.65-14.07,57Z" transform="translate(-4.47 -6.77)"/><path class="cls-1" d="M101.38,8.26l-26,46.2h88.07S153.35,16.92,101.38,8.26Z" transform="translate(-4.47 -6.77)"/></svg>